# xmcd
#
# Track frame offsets: 
#        150
#        13869
#        27017
#        43254
#        60814
#        77793
#        93703
#        109007
#        119915
#        136553
#        150745
#        166310
#        182906
#        197130
#
# Disc length: 2748 seconds
#
# Revision: 0
# Processed by: cddbd v1.5.2PL0 Copyright (c) Steve Scherf et al.
# Submitted via: ExactAudioCopy v0.95a5
#
DISCID=b70aba0e
DTITLE=Delta Jets - Chairfactory Blues
DYEAR=1900
DGENRE=Blues
TTITLE0=My Baby Blues
TTITLE1=Sante Fe
TTITLE2=Midnight Sun Blues
TTITLE3=Samantha
TTITLE4=Crossroads
TTITLE5=Roll With It
TTITLE6=Sylvester's Rag
TTITLE7=Sittin' On Top Of The World
TTITLE8=Dust My Broom
TTITLE9=Big Road Blues
TTITLE10=Can't Be Satisfied
TTITLE11=Future Blues
TTITLE12=Jitterbug Swing
TTITLE13=American Country
EXTD=
EXTT0=
EXTT1=
EXTT2=
EXTT3=
EXTT4=
EXTT5=
EXTT6=
EXTT7=
EXTT8=
EXTT9=
EXTT10=
EXTT11=
EXTT12=
EXTT13=
PLAYORDER=
